<?xml version="1.0" standalone="no"?>
<!DOCTYPE svg PUBLIC "-//W3C//DTD SVG 20010904//EN"
 "http://www.w3.org/TR/2001/REC-SVG-20010904/DTD/svg10.dtd">
<svg version="1.0" xmlns="http://www.w3.org/2000/svg"
 width="700.000000pt" height="700.000000pt" viewBox="0 0 700.000000 700.000000"
 preserveAspectRatio="xMidYMid meet">
<metadata>
Created by potrace 1.11, written by Peter Selinger 2001-2013
</metadata>
<g transform="translate(0.000000,700.000000) scale(0.100000,-0.100000)"
fill="#000000" stroke="none">
<path d="M2801 6605 c-178 -135 -336 -254 -350 -265 -52 -40 -310 -235 -333
-252 -26 -19 -42 -31 -113 -86 -27 -21 -270 -205 -540 -408 -269 -204 -560
-424 -645 -489 -85 -65 -201 -152 -257 -193 -56 -42 -101 -77 -99 -79 3 -3
172 -72 536 -220 331 -134 355 -144 375 -153 11 -5 126 -52 255 -104 129 -52
344 -139 478 -194 l243 -100 242 205 c133 113 264 224 291 246 142 120 405
343 431 366 17 14 73 62 125 106 52 44 100 84 106 90 6 5 33 28 60 50 26 22
82 69 124 105 42 36 101 85 130 110 30 25 85 72 124 106 39 33 103 87 142 120
250 210 450 379 454 384 3 3 37 32 75 64 39 32 71 63 73 67 2 5 -7 13 -20 18
-13 5 -121 57 -242 115 -120 58 -219 106 -221 106 -1 0 -90 42 -196 94 -107
51 -241 116 -299 144 -58 27 -157 74 -220 105 -316 151 -393 187 -399 187 -3
0 -152 -110 -330 -245z"/>
<path d="M4669 5053 c-24 -21 -49 -42 -55 -48 -6 -5 -33 -28 -60 -50 -26 -22
-82 -69 -124 -105 -42 -36 -98 -83 -124 -105 -27 -22 -54 -45 -60 -50 -6 -6
-83 -71 -171 -145 -88 -74 -162 -136 -165 -139 -3 -4 -26 -23 -52 -44 -26 -21
-53 -43 -60 -50 -7 -7 -69 -60 -138 -117 -69 -58 -127 -107 -130 -110 -3 -3
-32 -28 -65 -55 -33 -28 -62 -52 -65 -55 -3 -3 -32 -27 -65 -55 -33 -27 -68
-57 -77 -65 -9 -8 -41 -35 -72 -60 -30 -25 -55 -47 -55 -50 -1 -3 41 -22 92
-42 50 -20 202 -81 337 -136 135 -55 331 -135 435 -177 105 -42 204 -83 220
-90 17 -7 55 -22 85 -34 30 -12 64 -26 75 -31 11 -5 106 -44 210 -86 105 -42
262 -105 350 -141 88 -36 183 -74 210 -85 28 -11 64 -26 80 -33 33 -15 213
-87 287 -116 l48 -19 54 83 c30 45 171 262 315 482 143 220 265 407 271 415 6
8 44 67 86 130 41 63 112 171 157 240 45 68 86 130 90 137 9 14 9 14 -353 178
-52 24 -124 56 -160 73 -36 16 -330 150 -655 297 -324 147 -603 273 -619 281
-16 8 -30 14 -31 14 -1 0 -21 -17 -46 -37z"/>
<path d="M496 3998 c9 -15 54 -77 69 -95 6 -6 36 -49 68 -95 52 -74 369 -520
433 -608 14 -19 64 -90 112 -157 115 -162 405 -569 448 -628 42 -59 245 -343
256 -358 7 -11 51 -72 98 -138 47 -65 132 -185 190 -266 58 -82 109 -152 113
-158 4 -5 46 -64 93 -130 47 -66 92 -129 100 -140 29 -40 195 -273 478 -670
159 -223 291 -405 292 -405 1 0 22 19 46 42 64 62 383 366 448 428 30 29 136
130 235 225 99 95 196 187 215 205 19 18 116 110 215 205 99 95 203 194 230
220 136 129 421 402 517 495 l109 105 -271 110 c-149 61 -290 117 -313 126
-23 9 -116 47 -207 84 -91 37 -241 99 -335 137 -93 38 -237 96 -320 130 -135
53 -170 68 -240 99 -11 5 -117 47 -235 95 -118 47 -251 101 -295 119 -44 18
-226 92 -405 164 -179 72 -334 136 -345 141 -11 5 -45 19 -75 31 -30 12 -68
27 -85 34 -28 12 -125 52 -620 252 -115 47 -226 92 -245 100 -61 26 -74 31
-150 62 -41 16 -198 79 -348 140 -150 61 -275 111 -278 111 -3 0 -2 -6 2 -12z"/>
</g>
</svg>
